<svg xmlns="http://www.w3.org/2000/svg"  viewBox="0 0 32 32" width="32px" height="32px" fill-rule="evenodd" clip-rule="evenodd" baseProfile="basic"><path fill="#e41e2f" fill-rule="evenodd" d="M7.997,22.997h-2v-2h-2	v-4h2v-2h2v-6h-2v-2h-2v-2h2v2h2v-2h2v-2h2v-2h2v2h-2v2h2v-2h6v2h2v2h-2v2h2v2h2v2h-2v-2h-4v2l-1,1v13L7.997,22.997z" clip-rule="evenodd"/><path fill="#e6e5e5" fill-rule="evenodd" d="M15.997,12.997h2v2h2v2	h2v3h-6V12.997z" clip-rule="evenodd"/><path fill="#e41e2f" fill-rule="evenodd" d="M15.997,14.997h2v2l1,1	v2h-4v-4L15.997,14.997z" clip-rule="evenodd"/><path fill="#e6e5e5" fill-rule="evenodd" d="M15.997,18.997h2l1,1v4	h-4v-4L15.997,18.997z" clip-rule="evenodd"/><path fill="#e41e2f" fill-rule="evenodd" d="M14.997,27.997l-2-2h-2	v-4h4l2,2v4H14.997z" clip-rule="evenodd"/><path fill="#e6e5e5" fill-rule="evenodd" d="M11.997,21.997v-7h4v4	l-1,3H11.997z" clip-rule="evenodd"/><path fill="#fcc201" fill-rule="evenodd" d="M19.997,18.997h4v-2h4	v-2h2v2h-2v2h-2v2h-2v2h-4v8h-4v-2h-2v-2h-4v-2h-2v-2h2v-2h4l1-1l1,1v2h-4v2h2v2h3l-1-2v-2h2v-4l1-1L19.997,18.997z" clip-rule="evenodd"/><path fill="#8c1539" fill-rule="evenodd" d="M11.997,10.999v1.999	h1.999v-1.999H11.997z" clip-rule="evenodd"/><path fill="#8c1539" fill-rule="evenodd" d="M9.996,12.997v2.001	h2.001v-2.001H9.996z" clip-rule="evenodd"/><path fill="#064678" fill-rule="evenodd" d="M13.996,18.999v1.999	h2.001v-1.999H13.996z" clip-rule="evenodd"/><path fill="#064678" fill-rule="evenodd" d="M17.997,16.999v1.999	h1.999v-1.999H17.997z" clip-rule="evenodd"/><path fill="#706d67" fill-rule="evenodd" d="M15.997,24.999v3.999	h1.999v-3.999H15.997z" clip-rule="evenodd"/></svg>