<svg xmlns="http://www.w3.org/2000/svg"  viewBox="0 0 32 32" width="32px" height="32px" fill-rule="evenodd" clip-rule="evenodd" baseProfile="basic"><path fill="#8c1539" fill-rule="evenodd" d="M23,29v-2h-2v-6h4v-2h-2	v-2h-2v-2h8v-2h2V7h-2V5h-8V3H11v2H3v2H1v6h2v2h8v2H9v2H7v2h4v6H9v2h6v-4h2v4H23z" clip-rule="evenodd"/><path fill="#f9c292" fill-rule="evenodd" d="M9,13V7h2V5h10v2h2v6h-2	v2H11v-2H9z" clip-rule="evenodd"/><path fill="#064678" fill-rule="evenodd" d="M12.999,9.001V11H15	V9.001H12.999z" clip-rule="evenodd"/><path fill="#064678" fill-rule="evenodd" d="M16.999,9.001V11H19	V9.001H16.999z" clip-rule="evenodd"/><path fill="#e41e2f" fill-rule="evenodd" d="M15,13.001V15h2.001	v-1.999H15z" clip-rule="evenodd"/><path fill="#b4252c" fill-rule="evenodd" d="M2.999,7.001V13H7V7.001	H2.999z" clip-rule="evenodd"/><path fill="#b4252c" fill-rule="evenodd" d="M24.999,7.001V13H29	V7.001H24.999z" clip-rule="evenodd"/><path fill="#f9c292" fill-rule="evenodd" d="M12.999,17.001V23H19	v-5.999H12.999z" clip-rule="evenodd"/></svg>